<?xml version="1.0" encoding="UTF-8" standalone="no"?>
<svg
   version="1.1"
   x="0px"
   y="0px"
   viewBox="0 0 132 130.5"
   enable-background="new 0 0 216 146"
   xml:space="preserve"
   id="svg1"
   sodipodi:docname="noun-rss-3933798.svg"
   width="132"
   height="130.5"
   inkscape:version="1.3 (0e150ed, 2023-07-21)"
   xmlns:inkscape="http://www.inkscape.org/namespaces/inkscape"
   xmlns:sodipodi="http://sodipodi.sourceforge.net/DTD/sodipodi-0.dtd"
   xmlns="http://www.w3.org/2000/svg"
   xmlns:svg="http://www.w3.org/2000/svg"><defs
     id="defs1" /><sodipodi:namedview
     id="namedview1"
     pagecolor="#ffffff"
     bordercolor="#000000"
     borderopacity="0.25"
     inkscape:showpageshadow="2"
     inkscape:pageopacity="0.0"
     inkscape:pagecheckerboard="0"
     inkscape:deskcolor="#d1d1d1"
     showguides="false"
     inkscape:zoom="1.2931507"
     inkscape:cx="108.26271"
     inkscape:cy="91.25"
     inkscape:window-width="1280"
     inkscape:window-height="449"
     inkscape:window-x="0"
     inkscape:window-y="25"
     inkscape:window-maximized="0"
     inkscape:current-layer="svg1" /><path
     d="m 121.92752,9.5799492 c -4.588,-4.589 -10.115,-6.884 -16.578,-6.884 H 27.134526 c -6.463,0 -11.99,2.295 -16.58,6.884 C 5.9655255,14.169949 3.6705255,19.696949 3.6705255,26.159949 v 78.214001 c 0,6.463 2.295,11.99 6.8840005,16.58 4.59,4.59 10.117,6.885 16.58,6.885 h 78.213994 c 6.463,0 11.99,-2.295 16.578,-6.885 4.59,-4.59 6.885,-10.117 6.885,-16.58 V 26.159949 c 0,-6.463 -2.295,-11.991 -6.884,-16.5799998 z M 42.329526,103.92595 c -2.038,2.036 -4.495,3.055 -7.374,3.055 -2.878,0 -5.336,-1.019 -7.373,-3.055 -2.037,-2.037 -3.056,-4.495001 -3.056,-7.374001 0,-2.878 1.019,-5.336 3.056,-7.373 2.037,-2.037 4.495,-3.055 7.373,-3.055 2.879,0 5.337,1.018 7.374,3.055 2.036,2.037 3.055,4.495 3.055,7.373 0,2.879 -1.018,5.337001 -3.055,7.374001 z m 30.916996,2.239 c -0.543,0.543 -1.168,0.813 -1.874,0.813 H 60.944526 c -0.706,0 -1.303,-0.229 -1.792,-0.692 -0.489,-0.461 -0.761,-1.045 -0.815,-1.752 -0.597,-8.363001 -3.883,-15.533001 -9.858,-21.509001 -5.975,-5.974 -13.144,-9.26 -21.509,-9.858 -0.706,-0.053 -1.29,-0.324 -1.751,-0.813 -0.462,-0.488 -0.693,-1.086 -0.693,-1.792 v -10.429 c 0,-0.706 0.272,-1.331 0.815,-1.874 0.543,-0.543 1.195,-0.787 1.956,-0.733 12.601,0.706 23.355,5.514 32.263,14.421 8.907996,8.909 13.714996,19.662 14.420996,32.264001 0.055,0.76 -0.192,1.411 -0.735,1.954 z m 31.285998,0 c -0.543,0.543 -1.167,0.814 -1.873,0.814 H 92.230522 c -0.706,0 -1.304,-0.244 -1.792,-0.732 -0.489,-0.488 -0.76,-1.086 -0.815,-1.793 -0.38,-11.080001 -3.409,-21.346001 -9.084,-30.797001 -5.675,-9.451 -13.238996,-17.014 -22.689996,-22.689 -9.451,-5.676 -19.716,-8.704 -30.797,-9.084 -0.706,-0.054 -1.303,-0.326 -1.792,-0.814 -0.488,-0.489 -0.733,-1.087 -0.733,-1.793 v -10.429 c 0,-0.706 0.272,-1.33 0.815,-1.874 0.489,-0.543 1.113,-0.787 1.874,-0.732 8.364,0.271 16.444,1.791 24.238,4.562 7.794,2.769 14.855,6.558 21.183996,11.365 6.328,4.806 11.895,10.374 16.701,16.702 4.806,6.328 8.596,13.389 11.365998,21.183 2.769,7.795 4.291,15.874 4.562,24.238001 0.108,0.761 -0.135,1.385 -0.735,1.873 z"
     id="path1" /></svg>
